<svg xmlns="http://www.w3.org/2000/svg" viewBox="0 0 688.87 642.33"><defs><style>.cls-1{fill:#fff;}.cls-2{fill:#3f4671;}.cls-3{fill:none;stroke:#fff;stroke-miterlimit:10;stroke-width:4px;}</style></defs><title>malersplat</title><g id="Layer_2" data-name="Layer 2"><g id="Layer_1-2" data-name="Layer 1"><path d="M659.69,422.6c-2.6-2.22-7.27-2-11-2.94,1.72,4.82,3.33,9.68,5.28,14.41.32.78,2.21.82,3.25,1.42,5.65,3.26,11.59,6.16,16.8,10s9.91,8.85,14.83,13.33v-9.18C679.2,440.58,669.77,431.2,659.69,422.6Z"/><path d="M533.54,502.13c-.1-.87-1.73-1.61-2.7-2.35-11.32-8.7-22.35-17.81-34.06-25.94-8.54-5.92-18-10.52-27.44-16,2.31-7,2.71-7.31,12.28-9.5C492,446,497.37,439.47,498,428.88c.14-2.26,1.74-4.4,2.34-6.67.93-3.52,2.63-7.27,2.13-10.65-1.54-10.42,4.43-16.13,14.83-13.48,3.22.82,6.75,2.37,9.72,1.7s7.29-3.23,8-5.77c.61-2.26-2.26-6.74-4.79-8.28-4.58-2.8-10.25-3.76-15.08-6.24-2.83-1.45-6.45-4-7.07-6.65-2.16-9.24,4.84-9.42,11.2-9.86,5.55-.38,12.73-.71,12.7-7.42,0-4.43-4.27-11-8.29-12.76-7.91-3.38-9-9-7.79-15.4s4.73-12.39,5.92-18.8a44.69,44.69,0,0,0-.43-16.13c-.38-2-4-3.5-6.3-5-11.56-7.28-6.7-20.48-11-30.41-3.5-8.15.74-14.73,6-20.7a48.29,48.29,0,0,0,4.78-5.5c4.07-6.36,2.15-10.55-5.26-11.41a26.71,26.71,0,0,0-7.29.41c-9.39,1.54-16.06-1.92-22.29-9.24a274.27,274.27,0,0,0-28.86-29.09c-5.11-4.43-6.1-8.14-4.46-14.19.9-3.32.67-9.95-.52-10.31-4.6-1.41-10.53-2.6-14.62-.8-12.71,5.57-15.67,5.3-23.1-6.29-1.81-2.83-3.49-5.75-5.17-8.66-5.56-9.63-9.2-10.33-19.48-6.77a21,21,0,0,1-14.21-.83c-14.94-6.8-13.2-22.74-13.16-34.15.08-18.56,5.92-37.09,9.07-55.67.54-3.17-.27-6.57-.46-9.86l-3.27-.47c-1.32,3.78-3.21,7.46-3.86,11.34-3.11,18.47-5.91,37-8.78,55.49-2,12.65-12.48,22.43-21.2,18.22-9.39-4.54-13.8-.55-18.86,6.26-6.17,8.3-12.15,8.55-20.2,2-9-7.35-14.56-6.95-21.72,1.57-10.19,12.12-24.68,10.37-32.61-3.64a39.84,39.84,0,0,0-9-11.25c-4.35-3.54-8.73-2.25-8.44,4,.25,5.45,2.54,10.78,3.42,16.24.73,4.5,2.75,10.82.63,13.35-5.35,6.37-12.34,11.62-19.37,16.28-7.49,5-15.14,3.4-22-2.35-5.49-4.63-11-9.17-17.06-14.16,3,9.66,6,18.17,8.21,26.89.83,3.31-.25,7.09-.46,10.65-3.22-1.8-6.71-3.27-9.6-5.5-3.22-2.48-5.89-5.67-8.8-8.55l-3.08,3.14c3.09,3.09,5.72,7,9.39,9.07,5.17,2.91,6.92,6.39,3.53,11-5.89,8-12.36,15.66-18.7,23.36-4.14,5-8.86,5.79-14.51,2.07-2.8-1.84-6.22-2.72-9.36-4l-1,2,14.77,9.09c-1.11,1.51-2,3.66-2.76,3.62-8.21-.5-16.52-.73-24.54-2.35-4.22-.86-7.68-5.19-11.92-6.36-3.81-1-8.21.09-12.36.26,3,2.42,5.64,5.51,9,7.16,19.78,9.67,33.6,24,35,46.87.36,6-3.66,12.22-5.58,18.37-.95,3-1.57,6.17-2.56,9.19-1.85,5.64-2.2,13.8-6.13,16.32-9.62,6.18-19.48,14.26-32.86,10.08-4.25-1.33-9.1-.6-13.64-1.14-2.39-.28-4.69-1.28-9.7-2.72l17.3-12.06c-7.57.88-14.4,4.61-21.53,5.31-13.53,1.32-27.26.47-40.83,1.49-3.16.24-6,4.35-9,6.68,2.92,1.86,5.74,5.1,8.77,5.33,9.55.7,19.29-1.48,28.28,4.33,2.31,1.49,6.43.26,9.71.14,3.53-.13,7.06-.43,10.59-.65l1.48,3-13.31,9c7.36.77,12.89,1.82,18.41,1.73,2.91,0,5.8-2.06,8.7-3.19-2-3.05-3.92-6.22-6.18-9.1-.69-.88-2.37-1-3.59-1.45l.6-3.23c14.54,2,29.12,3.73,43.59,6.13a9.81,9.81,0,0,1,6.45,5.61c4,12.66,9.82,25.3,3.22,38.94-2.87,5.92-1.28,10.56,4.52,13.91,3.82,2.21,7.42,4.81,12.38,8.06-4.2,4.43-7.81,7.59-10.59,11.36-2.57,3.48-4.26,7.62-6.33,11.47,4.1,1,8.17,2.21,12.32,2.71,1.53.18,3.28-1.39,4.91-2.19,5.46-2.66,10-2.28,13,3.73,2.59,5.16,4.65,10.75,8.1,15.27,6,7.85,6.72,15,.54,23-3.17,4.12-3.27,9.45,1.84,11.75,3.44,1.55,8.37,1.16,12.24.14,9.76-2.56,14.19,1,12.14,10.54-1.56,7.26,5.27,20,12,23,4.87,2.17,8.29,1.6,12-2.71,2.05-2.37,6.35-2.79,9.64-4.09.4,3.45,1.53,7,1.06,10.34-.89,6.32-4.24,12.74,2.59,18.3,2.79-2.31,5.1-4.21,7.38-6.14,2.49-2.1,5.56-3.82,7.3-6.42,4.62-6.93,9-5.3,14.38-1a76.85,76.85,0,0,0,14.21,9.51c9.93,4.88,11.65,9.17,7.94,19.69a68.75,68.75,0,0,0-3.4,16.84c-1.05,12.33-1.7,24.71-2,37.09-.07,2.69,1.61,5.55,3,8.05.33.6,3.63.58,4,0,1.24-2.25,2.75-5,2.49-7.33-2.42-22.13,9.74-39.08,20.27-56.39,2.15-3.53,8.07-4.72,12.18-7.13,3.56-2.09,6.93-4.51,10.52-6.55,4.51-2.56,9-6.56,13.76-7a472.28,472.28,0,0,1,49.21-1.84c4.21.07,9.73,3.81,12.16,7.5,3.21,4.88,3.59,11.53,5.91,17.13,2.13,5.16,5.28,9.89,7.85,14.87,2.32,4.48,6.62,9.2,6.32,13.56-1.29,18.46,10.34,30.61,18.5,44.52l4-1.53c-3.41-10.45-6.91-20.88-10.23-31.37-6.69-21.15-12.79-42.5-20.18-63.4-2.45-6.92-.38-9.54,5.13-11.68,11.32-4.4,18.58-11.05,22.52-23.87,3.61-11.73,18.86-19.81,29.94-8.07,9.37,9.93,18.93,19.68,28.57,29.35,2.39,2.4,5.39,4.19,8.11,6.26l1.41-1.44-21.72-28.22c3.41-.53,5.13-1.38,6.13-.86,7.51,4,15.28,7.61,22.21,12.44,11.64,8.13,22.67,17.13,34.1,25.59,1.42,1.05,3.66,1,5.52,1.47.18-1.38,1-3.38.42-4C541.13,520.31,534.71,512.76,533.54,502.13Z"/><path d="M313.33,92.4c0,2,.8,3.9,1.23,5.85,9.61-33,4.16-65.5,1-98.24a62.49,62.49,0,0,0-5,23.44c-.06,7.51,2.24,15,2.46,22.56C313.48,61.45,313.19,76.93,313.33,92.4Z"/><path d="M669.91,141.88c-7-2.2-45.05,20-50.51,29.54C637.35,173,666,156.21,669.91,141.88Z"/><path d="M568.42,210.46c2.07-1.29,2.83-4.67,4.2-7.09-2.77-1.39-5.82-4.31-8.27-3.88-6.5,1.15-13.42,2.69-18.89,6.11-4.51,2.83-7.19,8.58-11.75,14.39C548.7,222.12,558.72,216.51,568.42,210.46Z"/><path d="M105,92.52l2.33-2.66c-5.72-7.58-11.13-15.45-17.41-22.53C88.54,65.79,84,67,81,67c0,2.52-1,6.3.2,7.34C88.81,80.75,97,86.53,105,92.52Z"/><path d="M186.37,585.31c-.48-.16-3.06,3-2.72,3.82,1.38,3.12,2.93,6.7,5.51,8.65,8.44,6.37,17.36,12.1,27.51,19.05-7.58-9.91-13.93-18.78-21-27.05C193.63,587.35,189.65,586.41,186.37,585.31Z"/><path d="M519.14,95.64c.89-1.26.66-4.48-.37-5.57s-4.46-1-5.41,0c-6.83,6.87-13.29,14.11-19.87,21.23l2.65,2.83C506.4,111.36,513.23,104,519.14,95.64Z"/><path d="M143.7,125.44c-.41-1.61-.29-3.75-1.3-4.76-4.92-4.92-10.07-9.62-15.29-14.23-4.85-4.29-9.88-8.36-14.82-12.53l-3.4,3.62c10,9.64,19.95,19.33,30.12,28.79C139.7,127,142.09,125.78,143.7,125.44Z"/><path d="M581.82,191.5l1.32,3c6.26-1.5,13.26-1.75,18.58-4.86s9-9.09,13.43-13.82l-2.2-2.3Z"/><path d="M482.3,134c1.16-1.17.34-5.9-1.15-7.58-1.07-1.21-6.24-1.05-7.07.18-4.34,6.46-7.89,13.46-11.71,20.27l2.28,2.39C470.61,144.27,476.84,139.53,482.3,134Z"/><path d="M468.65,613,465,615.44l17.14,25.89,2.25-1.43C479.4,630.8,479.34,618.72,468.65,613Z"/><path d="M30.85,424.71c12.28,4.49,18.31-6.81,28.73-7.68C51.72,411.32,40.42,414.6,30.85,424.71Z"/><path d="M562.27,406.3l14.24,5.58,10.47-6.5C573.9,400,573.9,400,562.27,406.3Z"/><path d="M93.12,543.91a24.16,24.16,0,0,0-8.5,7.31c-.59.84,2.53,4.27,5.24,8.54L98.77,548C96.83,546.53,94,543.43,93.12,543.91Z"/><path d="M370.36,63.13l-1.77,32.25C374.73,89.23,375.05,67.11,370.36,63.13Z"/><path d="M618,428.87l21.17,8.64,1.75-4.67-21.07-8.56Z"/><path d="M511.63,537.27l13.44,14.95C528.28,541.85,524.26,537.5,511.63,537.27Z"/><path d="M262.13,550.38,260,566.11l4.64.54,1.69-15.75Z"/><path d="M51.08,448.34l-17.45,7.2C46.57,456.5,49.52,455,51.08,448.34Z"/><path d="M592.67,419.38l18,5.83.89-2.91-17.42-7Z"/><path d="M97.38,305.24l-1.27-3.14-18.83,7.47,1.51,3.28Z"/><path class="cls-1" d="M175.52,276.16a1.24,1.24,0,0,1,1.34-1.1h15.59c8.68,0,15.8,5.8,15.8,12.82,0,7.2-7.13,13.05-15.73,13.05H180.88v13.64a1.28,1.28,0,0,1-1.34,1.1h-2.68a1.24,1.24,0,0,1-1.34-1.1Zm16.58,20.48c5.79,0,10.72-3.89,10.72-8.88,0-4.7-4.94-8.3-10.72-8.3H180.88v17.17Z"/><path class="cls-1" d="M221.8,276.45a1.54,1.54,0,0,1,1.69-1.39h2a1.59,1.59,0,0,1,1.69,1.39v16.42l22-17.23a2.27,2.27,0,0,1,1.34-.58H254c1.27,0,2,1.16.85,2L232.6,294.21l23.35,19.67c.49.41.35,1.8-1.2,1.8h-3.6a2.17,2.17,0,0,1-1.27-.41l-22.65-19.44v18.45a1.59,1.59,0,0,1-1.69,1.39h-2a1.54,1.54,0,0,1-1.69-1.39Z"/><path class="cls-1" d="M296.52,278.94H284.24a1.24,1.24,0,0,1-1.34-1.1v-1.68a1.24,1.24,0,0,1,1.34-1.1h29.91a1.24,1.24,0,0,1,1.34,1.1v1.68a1.24,1.24,0,0,1-1.34,1.1H301.88v35.63a1.28,1.28,0,0,1-1.34,1.1h-2.68a1.28,1.28,0,0,1-1.34-1.1Z"/><path class="cls-1" d="M327.49,276.16a1.24,1.24,0,0,1,1.34-1.1h18.27c8.47,0,15.38,5.45,15.38,12.36,0,5.34-4.3,9.81-10.44,11.84L361.71,314c.49.75,0,1.68-1.2,1.68h-3.6a1.26,1.26,0,0,1-1.13-.52l-9.38-15.38H332.93v14.8a1.28,1.28,0,0,1-1.34,1.1h-2.75a1.24,1.24,0,0,1-1.34-1.1Zm19.26,19.79c5.43,0,10.16-3.71,10.16-8.47,0-4.41-4.73-8.18-10.16-8.18H333.07v16.65Z"/><path class="cls-1" d="M388.31,296.12l-17-19.38c-.56-.75,0-1.68,1.13-1.68h3.32a1.62,1.62,0,0,1,1.13.52l14.25,16.19,14.25-16.19a1.62,1.62,0,0,1,1.13-.52h3.32c1.13,0,1.69.93,1.13,1.68l-17.22,19.32v18.51a1.28,1.28,0,0,1-1.34,1.1h-2.75a1.24,1.24,0,0,1-1.34-1.1Z"/><path class="cls-1" d="M422.46,276.45a1.54,1.54,0,0,1,1.69-1.39h2a1.59,1.59,0,0,1,1.69,1.39v16.42l22-17.23a2.27,2.27,0,0,1,1.34-.58h3.46c1.27,0,2,1.16.85,2l-22.29,17.12,23.35,19.67c.49.41.35,1.8-1.2,1.8h-3.6a2.16,2.16,0,0,1-1.27-.41L427.9,295.83v18.45a1.59,1.59,0,0,1-1.69,1.39h-2a1.54,1.54,0,0,1-1.69-1.39Z"/><path class="cls-1" d="M222.77,374.58l1,2q-3.34,3.12-6.13,6.24a17.53,17.53,0,0,1-3.93.49q-5.83,0-12.16-4.39a21.29,21.29,0,0,1-13.53,4.39q-7,0-11.21-3.59a11.23,11.23,0,0,1-4.16-8.85,10.42,10.42,0,0,1,2.15-6.5q2.15-2.81,8.31-5.88a18.57,18.57,0,0,1-2.2-7.89,9.55,9.55,0,0,1,.43-3.12,5.54,5.54,0,0,1,1.31-1.79l2.36-2.44a15.74,15.74,0,0,1,4-3.43,12.2,12.2,0,0,1,4.95-1.11,8.24,8.24,0,0,1,3.77.91,6.46,6.46,0,0,1,2.72,2.46,6.91,6.91,0,0,1,.92,3.59,8.65,8.65,0,0,1-2.39,6,38.66,38.66,0,0,1-8.22,6.2,68.42,68.42,0,0,0,13.6,14.36,13.55,13.55,0,0,0,1.74-3.06,8.22,8.22,0,0,0,.46-2.81,9.24,9.24,0,0,0-1.34-4.61h-1.64q-1.25,0-4.1.15l-.36-.5a21.39,21.39,0,0,0,2.16-3.83q5.34.25,9.67.25a89.3,89.3,0,0,0,11.07-.56l.46.31a16.86,16.86,0,0,0-1.15,4.48l-.43.37q-6.42-.46-9.4-.53a7.27,7.27,0,0,1,.43,2.29q0,4.73-4.65,9.77A21.91,21.91,0,0,0,217.83,377a3.19,3.19,0,0,0,1.38-.28A25.79,25.79,0,0,0,222.77,374.58Zm-38.27-13.45a7,7,0,0,0-3.67,6.37,12.16,12.16,0,0,0,11.57,11.59,12,12,0,0,0,6.39-2.1,59.67,59.67,0,0,1-7.81-7.14A65.85,65.85,0,0,1,184.51,361.14Zm4.88-5.93a17,17,0,0,0,5-4.22,6.87,6.87,0,0,0,1.39-3.94,4.78,4.78,0,0,0-.52-2.24,3.84,3.84,0,0,0-1.57-1.59,4,4,0,0,0-1.9-.59,4.86,4.86,0,0,0-2.95,1.16,4.33,4.33,0,0,0-1.51,3.66A18,18,0,0,0,189.39,355.2Z"/><path class="cls-1" d="M243.55,382.71v-2.6a18.11,18.11,0,0,0,4.42-.59,1.2,1.2,0,0,0,.59-.65q.33-.77.48-6.4t.15-10.91q0-9.86-.21-14.09t-.69-4.73q-.48-.49-2.83-.65l-1.9-.15v-2.6l3.7.12q3.44.09,5.47.09,2.78,0,9-.13,3.34-.09,4.91-.09a26.54,26.54,0,0,1,8.67,1,8.66,8.66,0,0,1,4.26,3.17,9.14,9.14,0,0,1,1.46,5.29,12.36,12.36,0,0,1-4.31,9.59,15.8,15.8,0,0,1-11,3.86,14.13,14.13,0,0,1-1.8-.12q-1-.12-2-.34-.56-1.1-1.18-2.14l.75-.77q.72.14,1.33.22a8.09,8.09,0,0,0,1.1.08,7.22,7.22,0,0,0,5.41-2.15,8.24,8.24,0,0,0,2.1-6q0-4.3-2.17-6.41t-6.37-2.12a20.65,20.65,0,0,0-4,.46q-.33,9.51-.33,16.12,0,2.22.26,14.18a34.38,34.38,0,0,0,.33,5.44,1.16,1.16,0,0,0,.62.74,26.41,26.41,0,0,0,5.57.62v2.6q-5.8-.22-9.76-.22Q253.77,382.49,243.55,382.71Z"/><path class="cls-1" d="M284.34,382.71v-2.6a20.87,20.87,0,0,0,4.36-.59,1.1,1.1,0,0,0,.52-.59,21.62,21.62,0,0,0,.46-5q.16-6.61.16-10.42,0-5.13-.13-13-.13-5.9-.62-7.23a1.07,1.07,0,0,0-.52-.62,17.93,17.93,0,0,0-4.23-.68v-2.6q6.78.22,8.75.22l16.42-.22a22.68,22.68,0,0,1,7.78,1,8.15,8.15,0,0,1,3.87,3.12,8.91,8.91,0,0,1,1.42,5,10,10,0,0,1-2.28,6.5q-2.28,2.79-7.91,5l7,9.92,5.44,7.6a9.7,9.7,0,0,0,2.29,2.24,6,6,0,0,0,2.46.42v2.38l-1.93,0q-8.32.06-10.71.19-2.85-4.3-8.52-12.46l-6.75-9.67a6.44,6.44,0,0,0,.49-1.11,18.34,18.34,0,0,0,1.93.15,9.63,9.63,0,0,0,6-2.32,7.94,7.94,0,0,0,2.95-6.63,7.39,7.39,0,0,0-2.33-5.82q-2.33-2.07-7-2.07-1.48,0-4,.22l-.22,9.13-.28,11.57q0,3.93.33,10.05a28.12,28.12,0,0,0,.52,5.17,1.43,1.43,0,0,0,.72.65,15.67,15.67,0,0,0,4.43.56v2.6q-5.89-.22-10.44-.22Q289.9,382.49,284.34,382.71Z"/><path class="cls-1" d="M332.8,382.71v-2.6q4.5-.22,5.08-.71a3.71,3.71,0,0,0,.72-2.44q.26-4.08.26-15.21,0-4.27-.13-12.36a44.51,44.51,0,0,0-.26-6.07,1.37,1.37,0,0,0-.69-.79,21.88,21.88,0,0,0-5-.59v-2.6q6.75.22,10.32.22,6.16,0,11.14-.22v2.6q-4.48.25-5.06.66a2.73,2.73,0,0,0-.74,1.93q-.26,3-.26,12,0,12.05.1,16.8t.59,5.64a1.4,1.4,0,0,0,.84.63,27.87,27.87,0,0,0,4.54.48v2.6l-3.87-.09q-3.67-.12-6.55-.12Z"/><path class="cls-1" d="M358.81,382.71v-2.6a18.44,18.44,0,0,0,4.69-.49,1.54,1.54,0,0,0,.69-.8q.36-.74.45-5.22.17-7.42.17-11.19l-.06-13.07q0-5.19-.36-6a1.3,1.3,0,0,0-.62-.68,19.92,19.92,0,0,0-5-.71v-2.6q5.12.15,7.59.15,2.72,0,6.19-.15,7.57,9.11,17.11,19.76,6.35,7.13,11,11.77V358.61q0-7-.16-12a10.83,10.83,0,0,0-.52-3.69,1.13,1.13,0,0,0-.72-.53,43.3,43.3,0,0,0-4.59-.43v-2.6q3.56.15,7.1.15,4.84,0,8.76-.15v2.6a22.79,22.79,0,0,0-4.4.49,1.73,1.73,0,0,0-.68.43,1.76,1.76,0,0,0-.39.71,27.1,27.1,0,0,0-.27,4.76l-.12,12.36-.07,12.46q0,5,.23,10l-.43.43q-4-.68-5.63-.9-8.42-8.8-20.35-22.11-6-6.73-9.73-11.34v12q0,4.91.16,11.83.1,5.1.46,5.87a1,1,0,0,0,.49.53,19.28,19.28,0,0,0,4.72.62v2.6q-5.29-.22-7.57-.22Q365,382.49,358.81,382.71Z"/><path class="cls-1" d="M423.69,382.71v-2.6a25.94,25.94,0,0,0,3.9-.31,2.66,2.66,0,0,0,1.34-.51,2.41,2.41,0,0,0,.59-1.31q.23-1.33.39-9.76.1-6,.1-12.23,0-12.26-.08-12.49t-2.32-.23q-4.57,0-7.85.25a8.62,8.62,0,0,0-2.15.31,1,1,0,0,0-.38.54q-.13.39-.56,5.42h-2.82a101.06,101.06,0,0,0-.33-10.2l.36-.25q10.32.46,20.08.46t21.79-.46l.36.5q-.62,4.25-.88,10h-2.72q-.29-5.21-.59-5.65a1.5,1.5,0,0,0-1-.47,84.24,84.24,0,0,0-10.42-.41c-.44,0-.7.06-.79.19a5.2,5.2,0,0,0-.13,1.64l-.2,20.79q0,9,.16,11.09t.79,2.49a25.36,25.36,0,0,0,5.17.65v2.6q-4.82-.22-10.24-.22Q428.12,382.49,423.69,382.71Z"/><path class="cls-2" d="M658.69,423.6c-2.6-2.22-7.27-2-11-2.94,1.72,4.82,3.33,9.68,5.28,14.41.32.78,2.21.82,3.25,1.42,5.65,3.26,11.59,6.16,16.8,10s9.91,8.85,14.83,13.33v-9.18C678.2,441.58,668.77,432.2,658.69,423.6Z"/><path class="cls-2" d="M532.54,503.13c-.1-.87-1.73-1.61-2.7-2.35-11.32-8.7-22.35-17.81-34.06-25.94-8.54-5.92-18-10.52-27.44-16,2.31-7,2.71-7.31,12.28-9.5C491,447,496.37,440.47,497,429.88c.14-2.26,1.74-4.4,2.34-6.67.93-3.52,2.63-7.27,2.13-10.65-1.54-10.42,4.43-16.13,14.83-13.48,3.22.82,6.75,2.37,9.72,1.7s7.29-3.23,8-5.77c.61-2.26-2.26-6.74-4.79-8.28-4.58-2.8-10.25-3.76-15.08-6.24-2.83-1.45-6.45-4-7.07-6.65-2.16-9.24,4.84-9.42,11.2-9.86,5.55-.38,12.73-.71,12.7-7.42,0-4.43-4.27-11-8.29-12.76-7.91-3.38-9-9-7.79-15.4s4.73-12.39,5.92-18.8a44.69,44.69,0,0,0-.43-16.13c-.38-2-4-3.5-6.3-5-11.56-7.28-6.7-20.48-11-30.41-3.5-8.15.74-14.73,6-20.7a48.29,48.29,0,0,0,4.78-5.5c4.07-6.36,2.15-10.55-5.26-11.41a26.71,26.71,0,0,0-7.29.41c-9.39,1.54-16.06-1.92-22.29-9.24a274.27,274.27,0,0,0-28.86-29.09c-5.11-4.43-6.1-8.14-4.46-14.19.9-3.32.67-9.95-.52-10.31-4.6-1.41-10.53-2.6-14.62-.8-12.71,5.57-15.67,5.3-23.1-6.29-1.81-2.83-3.49-5.75-5.17-8.66-5.56-9.63-9.2-10.33-19.48-6.77a21,21,0,0,1-14.21-.83c-14.94-6.8-13.2-22.74-13.16-34.15.08-18.56,5.92-37.09,9.07-55.67.54-3.17-.27-6.57-.46-9.86l-3.27-.47c-1.32,3.78-3.21,7.46-3.86,11.34-3.11,18.47-5.91,37-8.78,55.49-2,12.65-12.48,22.43-21.2,18.22-9.39-4.54-13.8-.55-18.86,6.26-6.17,8.3-12.15,8.55-20.2,2-9-7.35-14.56-6.95-21.72,1.57-10.19,12.12-24.68,10.37-32.61-3.64a39.84,39.84,0,0,0-9-11.25c-4.35-3.54-8.73-2.25-8.44,4,.25,5.45,2.54,10.78,3.42,16.24.73,4.5,2.75,10.82.63,13.35-5.35,6.37-12.34,11.62-19.37,16.28-7.49,5-15.14,3.4-22-2.35-5.49-4.63-11-9.17-17.06-14.16,3,9.66,6,18.17,8.21,26.89.83,3.31-.25,7.09-.46,10.65-3.22-1.8-6.71-3.27-9.6-5.5-3.22-2.48-5.89-5.67-8.8-8.55l-3.08,3.14c3.09,3.09,5.72,7,9.39,9.07,5.17,2.91,6.92,6.39,3.53,11-5.89,8-12.36,15.66-18.7,23.36-4.14,5-8.86,5.79-14.51,2.07-2.8-1.84-6.22-2.72-9.36-4l-1,2,14.77,9.09c-1.11,1.51-2,3.66-2.76,3.62-8.21-.5-16.52-.73-24.54-2.35-4.22-.86-7.68-5.19-11.92-6.36-3.81-1-8.21.09-12.36.26,3,2.42,5.64,5.51,9,7.16,19.78,9.67,33.6,24,35,46.87.36,6-3.66,12.22-5.58,18.37-.95,3-1.57,6.17-2.56,9.19-1.85,5.64-2.2,13.8-6.13,16.32-9.62,6.18-19.48,14.26-32.86,10.08-4.25-1.33-9.1-.6-13.64-1.14-2.39-.28-4.69-1.28-9.7-2.72l17.3-12.06c-7.57.88-14.4,4.61-21.53,5.31-13.53,1.32-27.26.47-40.83,1.49-3.16.24-6,4.35-9,6.68,2.92,1.86,5.74,5.1,8.77,5.33,9.55.7,19.29-1.48,28.28,4.33,2.31,1.49,6.43.26,9.71.14,3.53-.13,7.06-.43,10.59-.65l1.48,3-13.31,9c7.36.77,12.89,1.82,18.41,1.73,2.91,0,5.8-2.06,8.7-3.19-2-3.05-3.92-6.22-6.18-9.1-.69-.88-2.37-1-3.59-1.45l.6-3.23c14.54,2,29.12,3.73,43.59,6.13a9.81,9.81,0,0,1,6.45,5.61c4,12.66,9.82,25.3,3.22,38.94-2.87,5.92-1.28,10.56,4.52,13.91,3.82,2.21,7.42,4.81,12.38,8.06-4.2,4.43-7.81,7.59-10.59,11.36-2.57,3.48-4.26,7.62-6.33,11.47,4.1,1,8.17,2.21,12.32,2.71,1.53.18,3.28-1.39,4.91-2.19,5.46-2.66,10-2.28,13,3.73,2.59,5.16,4.65,10.75,8.1,15.27,6,7.85,6.72,15,.54,23-3.17,4.12-3.27,9.45,1.84,11.75,3.44,1.55,8.37,1.16,12.24.14,9.76-2.56,14.19,1,12.14,10.54-1.56,7.26,5.27,20,12,23,4.87,2.17,8.29,1.6,12-2.71,2.05-2.37,6.35-2.79,9.64-4.09.4,3.45,1.53,7,1.06,10.34-.89,6.32-4.24,12.74,2.59,18.3,2.79-2.31,5.1-4.21,7.38-6.14,2.49-2.1,5.56-3.82,7.3-6.42,4.62-6.93,9-5.3,14.38-1a76.85,76.85,0,0,0,14.21,9.51c9.93,4.88,11.65,9.17,7.94,19.69a68.75,68.75,0,0,0-3.4,16.84c-1.05,12.33-1.7,24.71-2,37.09-.07,2.69,1.61,5.55,3,8.05.33.6,3.63.58,4,0,1.24-2.25,2.75-5,2.49-7.33-2.42-22.13,9.74-39.08,20.27-56.39,2.15-3.53,8.07-4.72,12.18-7.13,3.56-2.09,6.93-4.51,10.52-6.55,4.51-2.56,9-6.56,13.76-7a472.28,472.28,0,0,1,49.21-1.84c4.21.07,9.73,3.81,12.16,7.5,3.21,4.88,3.59,11.53,5.91,17.13,2.13,5.16,5.28,9.89,7.85,14.87,2.32,4.48,6.62,9.2,6.32,13.56-1.29,18.46,10.34,30.61,18.5,44.52l4-1.53c-3.41-10.45-6.91-20.88-10.23-31.37-6.69-21.15-12.79-42.5-20.18-63.4-2.45-6.92-.38-9.54,5.13-11.68,11.32-4.4,18.58-11.05,22.52-23.87,3.61-11.73,18.86-19.81,29.94-8.07,9.37,9.93,18.93,19.68,28.57,29.35,2.39,2.4,5.39,4.19,8.11,6.26l1.41-1.44-21.72-28.22c3.41-.53,5.13-1.38,6.13-.86,7.51,4,15.28,7.61,22.21,12.44,11.64,8.13,22.67,17.13,34.1,25.59,1.42,1.05,3.66,1,5.52,1.47.18-1.38,1-3.38.42-4C540.13,521.31,533.71,513.76,532.54,503.13Z"/><path class="cls-2" d="M312.33,93.4c0,2,.8,3.9,1.23,5.85,9.61-33,4.16-65.5,1-98.24a62.49,62.49,0,0,0-5,23.44c-.06,7.51,2.24,15,2.46,22.56C312.48,62.45,312.19,77.93,312.33,93.4Z"/><path class="cls-2" d="M668.91,142.88c-7-2.2-45.05,20-50.51,29.54C636.35,174,665,157.21,668.91,142.88Z"/><path class="cls-2" d="M567.42,211.46c2.07-1.29,2.83-4.67,4.2-7.09-2.77-1.39-5.82-4.31-8.27-3.88-6.5,1.15-13.42,2.69-18.89,6.11-4.51,2.83-7.19,8.58-11.75,14.39C547.7,223.12,557.72,217.51,567.42,211.46Z"/><path class="cls-2" d="M104,93.52l2.33-2.66c-5.72-7.58-11.13-15.45-17.41-22.53C87.54,66.79,83,68,80,68c0,2.52-1,6.3.2,7.34C87.81,81.75,96,87.53,104,93.52Z"/><path class="cls-2" d="M185.37,586.31c-.48-.16-3.06,3-2.72,3.82,1.38,3.12,2.93,6.7,5.51,8.65,8.44,6.37,17.36,12.1,27.51,19.05-7.58-9.91-13.93-18.78-21-27.05C192.63,588.35,188.65,587.41,185.37,586.31Z"/><path class="cls-2" d="M518.14,96.64c.89-1.26.66-4.48-.37-5.57s-4.46-1-5.41,0c-6.83,6.87-13.29,14.11-19.87,21.23l2.65,2.83C505.4,112.36,512.23,105,518.14,96.64Z"/><path class="cls-2" d="M142.7,126.44c-.41-1.61-.29-3.75-1.3-4.76-4.92-4.92-10.07-9.62-15.29-14.23-4.85-4.29-9.88-8.36-14.82-12.53l-3.4,3.62c10,9.64,19.95,19.33,30.12,28.79C138.7,128,141.09,126.78,142.7,126.44Z"/><path class="cls-2" d="M580.82,192.5l1.32,3c6.26-1.5,13.26-1.75,18.58-4.86s9-9.09,13.43-13.82l-2.2-2.3Z"/><path class="cls-2" d="M481.3,135c1.16-1.17.34-5.9-1.15-7.58-1.07-1.21-6.24-1.05-7.07.18-4.34,6.46-7.89,13.46-11.71,20.27l2.28,2.39C469.61,145.27,475.84,140.53,481.3,135Z"/><path class="cls-2" d="M467.65,614,464,616.44l17.14,25.89,2.25-1.43C478.4,631.8,478.34,619.72,467.65,614Z"/><path class="cls-2" d="M29.85,425.71c12.28,4.49,18.31-6.81,28.73-7.68C50.72,412.32,39.42,415.6,29.85,425.71Z"/><path class="cls-2" d="M561.27,407.3l14.24,5.58,10.47-6.5C572.9,401,572.9,401,561.27,407.3Z"/><path class="cls-2" d="M92.12,544.91a24.16,24.16,0,0,0-8.5,7.31c-.59.84,2.53,4.27,5.24,8.54L97.77,549C95.83,547.53,93,544.43,92.12,544.91Z"/><path class="cls-2" d="M369.36,64.13l-1.77,32.25C373.73,90.23,374.05,68.11,369.36,64.13Z"/><path class="cls-2" d="M617,429.87l21.17,8.64,1.75-4.67-21.07-8.56Z"/><path class="cls-2" d="M510.63,538.27l13.44,14.95C527.28,542.85,523.26,538.5,510.63,538.27Z"/><path class="cls-2" d="M261.13,551.38,259,567.11l4.64.54,1.69-15.75Z"/><path class="cls-2" d="M50.08,449.34l-17.45,7.2C45.57,457.5,48.52,456,50.08,449.34Z"/><path class="cls-2" d="M591.67,420.38l18,5.83.89-2.91-17.42-7Z"/><path class="cls-2" d="M96.38,306.24l-1.27-3.14-18.83,7.47,1.51,3.28Z"/><path class="cls-1" d="M200,288.21a1,1,0,0,1,1.1-.9h12.74c7.09,0,12.91,4.74,12.91,10.48s-5.82,10.67-12.85,10.67h-9.51v11.14a1,1,0,0,1-1.1.9h-2.19a1,1,0,0,1-1.1-.9Zm13.55,16.73c4.73,0,8.76-3.18,8.76-7.25,0-3.84-4-6.78-8.76-6.78h-9.17v14Z"/><path class="cls-1" d="M237.86,288.44a1.26,1.26,0,0,1,1.38-1.14h1.67a1.3,1.3,0,0,1,1.38,1.14v13.42l18-14.08a1.85,1.85,0,0,1,1.1-.47h2.82c1,0,1.61.95.69,1.66l-18.21,14L265.76,319c.4.33.29,1.47-1,1.47h-2.94a1.77,1.77,0,0,1-1-.33l-18.5-15.88v15.07a1.3,1.3,0,0,1-1.38,1.14h-1.67a1.26,1.26,0,0,1-1.38-1.14Z"/><path class="cls-1" d="M298.9,290.48h-10a1,1,0,0,1-1.1-.9v-1.37a1,1,0,0,1,1.1-.9h24.44a1,1,0,0,1,1.1.9v1.37a1,1,0,0,1-1.1.9h-10v29.11a1,1,0,0,1-1.1.9H300a1,1,0,0,1-1.1-.9Z"/><path class="cls-1" d="M324.21,288.21a1,1,0,0,1,1.1-.9h14.93c6.92,0,12.57,4.46,12.57,10.1,0,4.36-3.52,8-8.53,9.67l7.9,12c.4.62,0,1.37-1,1.37h-2.94a1,1,0,0,1-.92-.43l-7.67-12.56h-11v12.09a1,1,0,0,1-1.1.9H325.3a1,1,0,0,1-1.1-.9Zm15.74,16.17c4.44,0,8.3-3,8.3-6.92,0-3.6-3.86-6.68-8.3-6.68H328.76v13.61Z"/><path class="cls-1" d="M373.9,304.51,360,288.68c-.46-.62,0-1.37.92-1.37h2.71a1.32,1.32,0,0,1,.92.43L376.2,301l11.64-13.23a1.32,1.32,0,0,1,.92-.43h2.71c.92,0,1.38.76.92,1.37l-14.06,15.79v15.12a1,1,0,0,1-1.1.9H375a1,1,0,0,1-1.1-.9Z"/><path class="cls-1" d="M401.8,288.44a1.26,1.26,0,0,1,1.38-1.14h1.67a1.3,1.3,0,0,1,1.38,1.14v13.42l18-14.08a1.86,1.86,0,0,1,1.1-.47h2.82c1,0,1.61.95.69,1.66l-18.21,14L429.7,319c.4.33.29,1.47-1,1.47h-2.94a1.77,1.77,0,0,1-1-.33l-18.5-15.88v15.07a1.3,1.3,0,0,1-1.38,1.14h-1.67a1.26,1.26,0,0,1-1.38-1.14Z"/><path class="cls-1" d="M238.65,368.62l.86,1.67q-2.73,2.55-5,5.1a14.32,14.32,0,0,1-3.21.4q-4.77,0-9.93-3.59a17.4,17.4,0,0,1-11.06,3.59q-5.76,0-9.15-2.93a9.17,9.17,0,0,1-3.4-7.23,8.51,8.51,0,0,1,1.75-5.31q1.75-2.3,6.79-4.8a15.17,15.17,0,0,1-1.79-6.44,7.8,7.8,0,0,1,.35-2.55,4.53,4.53,0,0,1,1.07-1.47l1.93-2a12.86,12.86,0,0,1,3.29-2.81,10,10,0,0,1,4-.91,6.73,6.73,0,0,1,3.08.74,5.28,5.28,0,0,1,2.22,2,5.65,5.65,0,0,1,.75,2.93,7.07,7.07,0,0,1-2,4.87,31.58,31.58,0,0,1-6.72,5.07,55.9,55.9,0,0,0,11.11,11.73,11.07,11.07,0,0,0,1.42-2.5,6.71,6.71,0,0,0,.37-2.3,7.55,7.55,0,0,0-1.1-3.76H223q-1,0-3.35.13l-.29-.41a17.47,17.47,0,0,0,1.77-3.13q4.36.2,7.9.2a73,73,0,0,0,9-.45l.37.25a13.77,13.77,0,0,0-.94,3.66l-.35.31q-5.25-.38-7.68-.43a5.94,5.94,0,0,1,.35,1.87q0,3.86-3.8,8a17.9,17.9,0,0,0,8.57,2.5,2.61,2.61,0,0,0,1.12-.23A21.07,21.07,0,0,0,238.65,368.62Zm-31.27-11a5.76,5.76,0,0,0-3,5.2,9.93,9.93,0,0,0,9.45,9.47,9.76,9.76,0,0,0,5.22-1.72,48.75,48.75,0,0,1-6.38-5.83A53.8,53.8,0,0,1,207.39,357.63Zm4-4.85a13.91,13.91,0,0,0,4.06-3.45,5.61,5.61,0,0,0,1.14-3.22,3.9,3.9,0,0,0-.43-1.83,3.14,3.14,0,0,0-1.29-1.3,3.24,3.24,0,0,0-1.55-.48,4,4,0,0,0-2.41.95,3.54,3.54,0,0,0-1.23,3A14.69,14.69,0,0,0,211.37,352.78Z"/><path class="cls-1" d="M255.62,375.26v-2.12a14.79,14.79,0,0,0,3.61-.48,1,1,0,0,0,.48-.53,26.88,26.88,0,0,0,.39-5.23q.12-4.6.12-8.91,0-8.06-.17-11.52t-.56-3.86a4.26,4.26,0,0,0-2.32-.53l-1.55-.13v-2.12l3,.1q2.81.08,4.47.08,2.27,0,7.33-.11,2.73-.07,4-.07a21.68,21.68,0,0,1,7.08.85,7.07,7.07,0,0,1,3.48,2.59,7.47,7.47,0,0,1,1.19,4.33,10.1,10.1,0,0,1-3.52,7.84,12.91,12.91,0,0,1-9,3.16,11.55,11.55,0,0,1-1.47-.1q-.78-.1-1.66-.28-.46-.9-1-1.75l.62-.63,1.08.18a6.61,6.61,0,0,0,.9.07,5.9,5.9,0,0,0,4.42-1.76,6.74,6.74,0,0,0,1.71-4.91,7,7,0,0,0-1.77-5.24,7.16,7.16,0,0,0-5.21-1.73,16.87,16.87,0,0,0-3.27.38q-.27,7.77-.27,13.17,0,1.82.21,11.58a28.09,28.09,0,0,0,.27,4.44.94.94,0,0,0,.51.61,21.57,21.57,0,0,0,4.55.51v2.12q-4.74-.18-8-.18Q264,375.08,255.62,375.26Z"/><path class="cls-1" d="M289,375.26v-2.12a17.05,17.05,0,0,0,3.56-.48.9.9,0,0,0,.43-.48,17.66,17.66,0,0,0,.37-4.09q.13-5.4.13-8.51,0-4.19-.11-10.66a26,26,0,0,0-.51-5.91.87.87,0,0,0-.43-.51,14.65,14.65,0,0,0-3.45-.56v-2.12q5.54.18,7.15.18l13.41-.18a18.53,18.53,0,0,1,6.36.79,6.66,6.66,0,0,1,3.16,2.55,7.28,7.28,0,0,1,1.16,4.12,8.15,8.15,0,0,1-1.86,5.31q-1.86,2.28-6.46,4l5.7,8.11L322,371a7.93,7.93,0,0,0,1.87,1.83,4.88,4.88,0,0,0,2,.34v1.94l-1.58,0q-6.8.05-8.75.15-2.33-3.51-7-10.18l-5.51-7.9a5.26,5.26,0,0,0,.4-.91,15,15,0,0,0,1.58.13,7.87,7.87,0,0,0,4.9-1.9,6.49,6.49,0,0,0,2.41-5.41,6,6,0,0,0-1.91-4.76q-1.91-1.7-5.72-1.69-1.21,0-3.27.18l-.18,7.46-.23,9.45q0,3.21.27,8.21a23,23,0,0,0,.43,4.22,1.17,1.17,0,0,0,.59.53,12.8,12.8,0,0,0,3.62.46v2.12q-4.81-.18-8.53-.18Q293.49,375.08,289,375.26Z"/><path class="cls-1" d="M328.54,375.26v-2.12q3.67-.18,4.15-.58a3,3,0,0,0,.59-2q.21-3.33.21-12.42,0-3.48-.11-10.1a36.36,36.36,0,0,0-.21-5,1.12,1.12,0,0,0-.56-.64,17.88,17.88,0,0,0-4.07-.48v-2.12q5.51.18,8.43.18,5,0,9.1-.18v2.12q-3.66.2-4.13.54a2.23,2.23,0,0,0-.61,1.58q-.21,2.42-.21,9.82,0,9.85.08,13.73t.48,4.61a1.14,1.14,0,0,0,.68.52,22.77,22.77,0,0,0,3.71.39v2.12l-3.16-.08q-3-.1-5.35-.1Z"/><path class="cls-1" d="M349.8,375.26v-2.12a15.06,15.06,0,0,0,3.83-.4,1.25,1.25,0,0,0,.56-.66,16.69,16.69,0,0,0,.37-4.27q.14-6.06.14-9.14L354.64,348a20.74,20.74,0,0,0-.29-4.9,1.07,1.07,0,0,0-.51-.56,16.28,16.28,0,0,0-4-.58v-2.12q4.18.13,6.2.13,2.23,0,5.06-.13,6.18,7.44,14,16.15,5.19,5.82,9,9.62v-10q0-5.69-.13-9.82a8.85,8.85,0,0,0-.43-3,.92.92,0,0,0-.59-.43,35.37,35.37,0,0,0-3.75-.35v-2.12q2.91.13,5.8.13,4,0,7.16-.13v2.12a18.62,18.62,0,0,0-3.59.4,1.41,1.41,0,0,0-.56.35,1.44,1.44,0,0,0-.32.58,22.14,22.14,0,0,0-.22,3.89l-.1,10.1-.05,10.18q0,4.09.19,8.18L387,376q-3.25-.56-4.6-.73-6.88-7.19-16.63-18.07-4.93-5.5-8-9.26v9.82q0,4,.13,9.66a20.57,20.57,0,0,0,.37,4.79.8.8,0,0,0,.4.43,15.75,15.75,0,0,0,3.85.51v2.12q-4.32-.18-6.18-.18Q354.89,375.08,349.8,375.26Z"/><path class="cls-1" d="M402.8,375.26v-2.12a21.19,21.19,0,0,0,3.19-.25,2.18,2.18,0,0,0,1.1-.42,2,2,0,0,0,.48-1.07q.19-1.09.32-8,.08-4.89.08-10,0-10-.07-10.21T406,343q-3.73,0-6.41.2a7,7,0,0,0-1.76.25.8.8,0,0,0-.31.44q-.11.32-.46,4.43h-2.3a82.57,82.57,0,0,0-.27-8.33l.29-.2q8.43.38,16.41.38t17.8-.38l.29.4q-.51,3.47-.72,8.13h-2.22a22,22,0,0,0-.48-4.62,1.22,1.22,0,0,0-.86-.38,68.82,68.82,0,0,0-8.51-.33c-.36,0-.57.05-.64.15a4.25,4.25,0,0,0-.11,1.34l-.16,17q0,7.38.13,9.06t.65,2a20.72,20.72,0,0,0,4.23.53v2.12q-3.94-.18-8.36-.18Q406.42,375.08,402.8,375.26Z"/><circle class="cls-3" cx="313.83" cy="331.65" r="156"/></g></g></svg>