<svg xmlns="http://www.w3.org/2000/svg" viewBox="0 0 472.29 166.14"><defs><style>.cls-1{fill:#344276;}.cls-2{font-size:69px;font-family:ArialMT, Arial;}.cls-3{letter-spacing:-0.02em;}.cls-4{letter-spacing:-0.02em;}</style></defs><title>trykprintlogo</title><g id="Layer_2" data-name="Layer 2"><g id="Layer_1-2" data-name="Layer 1"><line class="cls-1" x1="1.67" y1="161.14" x2="397.67" y2="161.14"/><rect class="cls-1" x="1.67" y="156.14" width="396" height="10"/><path d="M393.86,161.14"/><path class="cls-1" d="M453.71,166.14H366.87v-10h86.84a8.59,8.59,0,0,0,8.58-8.58V25.72a8.59,8.59,0,0,0-8.58-8.58H366.87v-10h86.84a18.6,18.6,0,0,1,18.58,18.58V147.56A18.6,18.6,0,0,1,453.71,166.14Z"/><line class="cls-1" x1="378.29" y1="53.64" x2="442.29" y2="53.64"/><path class="cls-1" d="M442.29,55.14h-64a1.5,1.5,0,0,1,0-3h64a1.5,1.5,0,0,1,0,3Z"/><line class="cls-1" x1="378.29" y1="87.64" x2="442.29" y2="87.64"/><path class="cls-1" d="M442.29,89.14h-64a1.5,1.5,0,0,1,0-3h64a1.5,1.5,0,0,1,0,3Z"/><line class="cls-1" x1="378.79" y1="123.64" x2="441.79" y2="123.64"/><path class="cls-1" d="M441.79,125.14h-63a1.5,1.5,0,0,1,0-3h63a1.5,1.5,0,0,1,0,3Z"/><text class="cls-2" transform="translate(0 59.21) scale(1.1 1)">PK<tspan class="cls-3" x="92.05" y="0"> </tspan><tspan x="109.97" y="0">T</tspan><tspan class="cls-3" x="152.12" y="0">R</tspan><tspan x="200.7" y="0">YK </tspan><tspan x="0" y="82.8">&amp; </tspan></text><text class="cls-2" transform="translate(71.71 142.01) scale(1.22 1)">PRIN<tspan class="cls-4" x="164.85" y="0">T</tspan></text></g></g></svg>